<svg xmlns="http://www.w3.org/2000/svg" viewBox="0 0 3061.42 3061.42"><defs><style>.cls-1{fill:#1a173a;}.cls-2{fill:#329632;}.cls-3,.cls-4{fill:#fff;}.cls-4,.cls-5{fill-rule:evenodd;}.cls-5{fill:#838182;}</style></defs><title>original logo</title><g id="Layer_2" data-name="Layer 2"><path class="cls-1" d="M2162.88,1812.78s160.66-204.28,331.87-341.46c208.73-167.3,432.32-274.21,432.33-274.21V156H177.48V596.61s649,240.41,1158.2,553.6C1814.39,1444.6,2162.88,1812.78,2162.88,1812.78Z"/><path class="cls-2" d="M2178.83,2118c-538-477-1229.92-821.34-2001.35-972.24V2662.62h2749.6V1283.49C2613.11,1510.63,2370.83,1760.75,2178.83,2118Z"/><path class="cls-3" d="M2494.75,1471.32c-171.21,137.18-331.87,341.46-331.87,341.46s-348.49-368.18-827.2-662.57C826.47,837,177.48,596.61,177.48,596.61v549.14C948.91,1296.65,1640.84,1641,2178.83,2118c192-357.24,434.28-607.36,748.25-834.5v-86.38S2703.48,1304,2494.75,1471.32Z"/><path class="cls-4" d="M2699.69,2480.48c0,42.72-11.54,71.22-59.56,71.22s-59.56-28.5-59.56-71.22V2307.32c0-42.77,11.55-69,59.56-69s59.56,26.27,59.56,69Zm-59.56-288.93c-91.85,0-123.58,48.74-123.58,130v144.67c0,81.25,31.73,132.22,123.58,132.22s123.58-52.09,123.58-132.22V2321.54C2763.71,2241.41,2731.2,2191.55,2640.13,2191.55Zm-358.86,174.94h-16.06V2238.23h16.06c51.75,0,80,17.56,80,64.13s-28.28,64.08-80,64.08Zm144.05-64.07c0-79.25-52.76-106.85-144.05-106.85h-80.08v398.84h64V2409h48.07l64.36,185.37h63.51L2369.27,2395C2406.58,2383,2425.32,2349.37,2425.32,2302.42Zm-450.66,64.07H1958.6V2238.23h16.06c63.52,0,80,15.84,80,71.27,0,47.62-26,56.94-80,56.94Zm32-170.92H1894.58v398.84h64V2409h48.07c72.5,0,112-34.52,112-99.71,0-71.27-32-114-112-114Zm-413.4,50.74h80v348.1h64.08v-348.1h80v-50.74H1593.27v50.74ZM1383,2366.49h-16V2238.23h16c51.75,0,80,17.56,80,64.13s-28.28,64.08-80,64.08Zm144.1-64.07c0-79.25-52.81-106.85-144.1-106.85h-80v398.84h64V2409h48l64.8,185.37h63.52l-72-199.42c37.25-12,55.77-45.62,55.77-92.57ZM1136.7,2480.48c0,42.72-11.49,71.22-59.5,71.22s-59.56-28.5-59.56-71.22V2307.32c0-42.77,11.49-69,59.56-69s59.5,26.27,59.5,69v173.16Zm-59.56-288.93c-91.85,0-123.58,48.74-123.58,130v144.67c0,81.25,31.73,132.22,123.58,132.22,91,0,123.53-52.09,123.53-132.22V2321.54C1200.67,2241.41,1168.15,2191.55,1077.14,2191.55ZM735,2366.49H719V2238.23h16c63.52,0,80,15.84,80,71.27,0,47.62-26,56.94-80,56.94Zm32-170.92H654.93v398.84H719V2409h48c72.5,0,112.09-34.52,112.09-99.71,0-71.27-32.06-114-112.09-114Zm-333.1,42.71c45.23,0,61.35,33.46,64,71.27l64-14.27c-5.57-64.75-48.74-103.73-128.26-103.73-67.31,0-112.37,37-112.37,96.14A110.71,110.71,0,0,0,370,2380.77l80,56.94c23.25,16.73,48,35.41,48,71.27q0,42.72-48,42.72c-48.57,0-61.79-44.28-64.08-85.49l-64,14.27c4.74,69.65,44.28,117.95,128.27,117.95,67.25,0,112-34.07,112-93.24,0-51-31.23-86.61-64-110.2l-80.36-57c-17.45-12.44-32-31.57-32-56.27C385.85,2254.57,402.86,2238.28,433.92,2238.28Z"/><path class="cls-5" d="M2670.19,2843.42l25.32-63,24.48,63Zm39-95.7h-27.66l-69.1,155.87h36l16-39h61.35l16.06,39h36l-68.87-155.87ZM2476.62,2878.1c-29.11,0-49.35-25-49.35-52.64,0-24.82,16.28-51.81,48.63-51.81,14.78,0,32.57,5.58,40.71,23.26l26.15-16.07c-11.15-20.18-34.8-34-65.91-34-53,0-83.66,39.76-83.66,77.74a82.82,82.82,0,0,0,82.65,80.36c27.38,0,59.28-13,69.88-36.25l-27.89-14.28a44.25,44.25,0,0,1-40.93,23.7Zm-205.5,25.49h34V2747.94h-34.08v155.65Zm-151.19-78.8h-42.71v-50.53h41.26a24.82,24.82,0,0,1,23.65,25.27c0,14-9.65,25.26-22.31,25.26Zm56.44-25.38c0-25.48-23.42-51.8-55.77-51.8H2043v155.87h34v-52.26h33.46l36.81,52.26h38.48l-41.22-58.62a48.57,48.57,0,0,0,31.57-45.45ZM1840.6,2903.59h34.07v-64.52h69.6v-24.6h-69.6v-40.21h83.65v-26.54H1840.6v155.87Zm-187.94-60.17,25.15-63,24.43,63Zm11.15-95.7-69.15,155.87h36l16.06-39h61.34l16,39h36l-68.42-155.87Zm-303.93,62.85h-79.47v-63h-34v155.87h34v-66.36h79.47v66.53h33.8V2747.72h-33.8Zm-343-36.31h55.77v129.33h34.07V2774.26h55.77v-26.54H1016.91Zm-114.6,53c0,25.48-10.37,50.69-42.94,50.69s-42.44-24.54-42.44-50.69v-79.58H782.69v79.58c0,40.37,20.75,77.51,76.74,77.51,54,0,76.51-34.91,76.51-77.51v-79.58h-33.8v79.58ZM614.66,2878c-30.84,0-49.07-25.21-49.07-52.25,0-25.66,17.51-52,48.8-52,30.11,0,48.9,25,48.9,52C663.29,2851.45,646,2878,614.66,2878Zm0-131.28c-48.12,0-83.65,37.59-83.65,79A81,81,0,0,0,614,2904.82h0c48.3,0,83.38-37.3,83.38-78.63a81.54,81.54,0,0,0-82.65-79.47Zm-216.76,66.2c-26.44-6.13-40-9.42-40-22.31,0-11.15,9.37-17.56,27.89-17.56a86.26,86.26,0,0,1,47.12,15.33L448,2763.78a120.25,120.25,0,0,0-61.35-17.34c-35.58,0-64,17.12-64,49,0,23.92,16.28,34,49.63,42.16,27.38,6.58,45.39,10.54,45.39,24.37,0,10.32-9.59,16-27.88,16a109.68,109.68,0,0,1-59-19.08L315.75,2885A142.79,142.79,0,0,0,389,2905.37c34.52,0,64.86-12.77,64.86-46.34C453.66,2830.48,432.14,2820.83,397.9,2812.91Z"/></g></svg>