<svg xmlns="http://www.w3.org/2000/svg" viewBox="0 0 2303.21 2303.26"><defs><style>.cls-1{fill:none;}.cls-2{fill:#231f20;}.cls-3{fill:#d39f29;}</style></defs><title>lodge</title><g id="Layer_2" data-name="Layer 2"><g id="Layer_2-2" data-name="Layer 2"><path class="cls-1" d="M1338,1185.88q-21.26-17-43.47-34.23Q1316.73,1168.9,1338,1185.88Z"/><path class="cls-1" d="M1509.27,1329.65q-23.44-20.72-49.22-42.82Q1485.79,1308.9,1509.27,1329.65Z"/><path class="cls-1" d="M1457.07,1284.27c-35.09-30-73.25-61.74-114.1-94.43C1383.82,1222.53,1422,1254.24,1457.07,1284.27Z"/><path class="cls-1" d="M1577.18,1390.88c-20.15-18.57-42.33-38.63-66.38-59.88C1534.85,1352.25,1557,1372.31,1577.18,1390.88Z"/><path class="cls-1" d="M1674.64,1483.78c-20.8-20.61-49.74-48.66-85.81-82.14C1624.9,1435.12,1653.84,1463.17,1674.64,1483.78Z"/><path class="cls-1" d="M1287,1145.83q-30.42-23.53-62.49-47.42Q1256.58,1122.26,1287,1145.83Z"/><path class="cls-1" d="M1680.22,1489.32c21.19,21.11,32.44,33,32.44,33h0S1701.41,1510.43,1680.22,1489.32Z"/><path class="cls-2" d="M1287,1145.83l7.52,5.82q22.2,17.25,43.47,34.23c1.67,1.32,3.31,2.64,5,4,40.85,32.69,79,64.4,114.1,94.43l3,2.56q25.74,22.07,49.22,42.82l1.53,1.35c24,21.25,46.23,41.31,66.38,59.88q5.94,5.46,11.65,10.76c36.07,33.48,65,61.53,85.81,82.14l5.58,5.54c21.19,21.11,32.44,33,32.44,33s19.07-24.24,50.8-61.15l4.21-4.89c8.56-9.91,18-20.65,28.1-32l5.13-5.73q10.38-11.57,21.66-23.85c1.88-2,3.77-4.1,5.69-6.16,9.56-10.34,19.56-21,29.91-31.75q9.31-9.72,19-19.59,12.91-13.15,26.42-26.43c36-35.32,74.68-70.68,114-102.2,99.19-79.5,202-144.16,278.21-188.06C2230.75,446.2,1743.29,0,1151.61,0c-405,0-761.19,209.09-966.49,525.22C399.54,617.41,695.46,755.36,952.58,913.5c87.5,53.81,170.23,110.3,246.68,166.27q12.75,9.33,25.26,18.64Q1256.58,1122.26,1287,1145.83Z"/><path class="cls-3" d="M1570.83,1671.81q80.4,63.5,156.49,131c152.87-284.43,340.44-494.95,575.49-681.88q-1.35-50.78-7-100.39c-76.18,43.9-179,108.56-278.21,188.06-39.33,31.52-78,66.88-114,102.2q-13.49,13.26-26.42,26.43-9.69,9.86-19,19.59c-10.35,10.79-20.35,21.41-29.91,31.75-1.92,2.06-3.81,4.12-5.69,6.16q-11.26,12.25-21.66,23.85l-5.13,5.73c-10.13,11.36-19.54,22.1-28.1,32l-4.21,4.89c-31.73,36.91-50.8,61.15-50.8,61.15h0s-11.25-11.89-32.44-33l-5.58-5.54c-20.8-20.61-49.74-48.66-85.81-82.14q-5.71-5.3-11.65-10.76c-20.15-18.57-42.33-38.63-66.38-59.88l-1.53-1.35q-23.44-20.72-49.22-42.82l-3-2.56c-35.09-30-73.25-61.74-114.1-94.43-1.66-1.32-3.3-2.64-5-4q-21.26-17-43.47-34.23l-7.52-5.82q-30.42-23.53-62.49-47.42-12.51-9.3-25.26-18.64c-76.45-56-159.18-112.46-246.68-166.27-257.12-158.14-553-296.09-767.46-388.26A1144.67,1144.67,0,0,0,19.92,937.37C604.09,1071.48,1134.34,1327.12,1570.83,1671.81Z"/><path class="cls-2" d="M2302.81,1120.89c-235,186.93-422.62,397.45-575.49,681.88q-76-67.44-156.49-131C1134.34,1327.12,604.09,1071.48,19.92,937.37h0A1157.75,1157.75,0,0,0,0,1151.6c0,636,515.56,1151.66,1151.61,1151.66s1151.6-515.64,1151.6-1151.66Q2303.21,1136.2,2302.81,1120.89Z"/></g></g></svg>